<?xml version="1.0" encoding="UTF-8" standalone="no"?>
<!DOCTYPE svg PUBLIC "-//W3C//DTD SVG 1.1//EN" "http://www.w3.org/Graphics/SVG/1.1/DTD/svg11.dtd">
<svg width="100%" height="100%" viewBox="0 0 2481 3508" version="1.1" xmlns="http://www.w3.org/2000/svg" xmlns:xlink="http://www.w3.org/1999/xlink" xml:space="preserve" style="fill-rule:evenodd;clip-rule:evenodd;stroke-linecap:round;stroke-linejoin:round;stroke-miterlimit:1.5;">
    <g transform="matrix(1,0,0,1,0,590.551)">
        <rect x="0" y="0" width="377.464" height="377.464" style="fill:none;"/>
        <g transform="matrix(6.14299e-17,1.11473,-0.923124,5.07648e-17,343.069,-40.6052)">
            <path d="M205.733,36.143L366.898,358.474L44.567,358.474L205.733,36.143Z" style="fill:rgb(43,182,115);"/>
        </g>
    </g>
    <g transform="matrix(1,0,0,1,0,590.551)">
        <g transform="matrix(1,0,0,1,377.464,-5.68434e-14)">
            <rect x="0" y="0" width="377.464" height="377.464" style="fill:none;"/>
        </g>
        <g>
            <g transform="matrix(6.14299e-17,1.11473,-0.923124,5.07648e-17,720.886,-40.6052)">
                <path d="M205.733,36.143L366.898,358.474L44.567,358.474L205.733,36.143Z" style="fill:rgb(249,183,51);"/>
            </g>
            <g transform="matrix(1,0,0,1,44.1753,-5.68434e-14)">
                <rect x="643.346" y="9.075" width="53.956" height="359.313" style="fill:rgb(249,183,51);"/>
            </g>
        </g>
    </g>
    <g transform="matrix(1,0,0,1,754.928,590.551)">
        <g transform="matrix(1,0,0,1,0.977262,0)">
            <rect x="0" y="0" width="377.464" height="377.464" style="fill:none;"/>
        </g>
        <g transform="matrix(1,0,0,1,-753.951,21.0413)">
            <path d="M802.353,188.732C802.353,266.774 865.618,330.04 943.66,330.04C1021.65,330.04 1084.97,266.722 1084.97,188.732C1084.97,110.69 1021.7,47.425 943.66,47.425L943.66,118.078C982.681,118.078 1014.31,149.711 1014.31,188.732C1014.31,227.727 982.655,259.386 943.66,259.386C904.639,259.386 873.007,227.753 873.007,188.732L802.353,188.732Z" style="fill:rgb(57,101,183);"/>
            <g transform="matrix(6.12323e-17,-1,1,6.12323e-17,774.646,1016.87)">
                <path d="M936.561,74.046L1011.53,169.014L861.595,169.014L936.561,74.046Z" style="fill:rgb(57,101,183);"/>
            </g>
        </g>
    </g>
    <g transform="matrix(1,0,0,1,-389.063,590.551)">
        <g transform="matrix(1,0,0,1,1522.92,0)">
            <rect x="0" y="0" width="377.464" height="377.464" style="fill:none;"/>
        </g>
        <g transform="matrix(1.30911,0,0,1.30911,970.438,-58.3395)">
            <path d="M629.107,62.911L692.018,125.821L629.107,188.732L692.018,251.643L629.107,314.553L566.196,251.643L503.285,314.553L440.375,251.643L503.286,188.732L440.375,125.821L503.285,62.911L566.196,125.821L629.107,62.911Z" style="fill:rgb(178,14,14);"/>
        </g>
    </g>
    <g transform="matrix(1,0,0,1,0,-221.638)">
        <g transform="matrix(1,0,0,1,1511.81,812.189)">
            <rect x="0" y="0" width="377.464" height="377.464" style="fill:none;"/>
        </g>
        <g transform="matrix(1,0,0,1,3.43361,812.189)">
            <g transform="matrix(1,0,0,1,-3.43361,0)">
                <ellipse cx="1700.54" cy="188.732" rx="95.493" ry="139.176" style="fill:rgb(191,157,102);stroke:rgb(135,102,69);stroke-width:41.67px;"/>
            </g>
            <g transform="matrix(1,0,0,1,-2.98477,0)">
                <path d="M1606.85,161.743L1794.24,161.743" style="fill:none;stroke:rgb(135,102,69);stroke-width:20.83px;"/>
            </g>
            <path d="M1700.54,161.743L1700.54,327.908" style="fill:none;stroke:rgb(135,102,69);stroke-width:20.83px;"/>
            <g transform="matrix(0.899869,0,0,1,181.548,0)">
                <g transform="matrix(0.696072,0,0,1,538.93,0)">
                    <path d="M1773.22,98.488L1862.09,49.556" style="fill:none;stroke:rgb(135,102,69);stroke-width:49.94px;"/>
                </g>
                <path d="M1796.04,188.732L1874.13,188.732" style="fill:none;stroke:rgb(135,102,69);stroke-width:43.8px;"/>
                <g transform="matrix(0.696072,0,0,1,538.93,0)">
                    <path d="M1773.22,278.976L1862.09,327.908" style="fill:none;stroke:rgb(135,102,69);stroke-width:49.94px;"/>
                </g>
            </g>
            <g transform="matrix(-0.899869,0,0,1,3212.67,0)">
                <g transform="matrix(0.696072,0,0,1,538.93,0)">
                    <path d="M1773.22,98.488L1862.09,49.556" style="fill:none;stroke:rgb(135,102,69);stroke-width:49.94px;"/>
                </g>
                <path d="M1796.04,188.732L1874.13,188.732" style="fill:none;stroke:rgb(135,102,69);stroke-width:43.8px;"/>
                <g transform="matrix(0.696072,0,0,1,538.93,0)">
                    <path d="M1773.22,278.976L1862.09,327.908" style="fill:none;stroke:rgb(135,102,69);stroke-width:49.94px;"/>
                </g>
            </g>
            <g transform="matrix(1,0,0,1,-3.46643,-810.908)">
                <circle cx="1658.23" cy="901.272" r="28.403" style="stroke:rgb(135,102,69);stroke-width:20.83px;"/>
            </g>
            <g transform="matrix(1,0,0,1,81.218,-810.908)">
                <circle cx="1658.23" cy="901.272" r="28.403" style="stroke:rgb(135,102,69);stroke-width:20.83px;"/>
            </g>
        </g>
    </g>
    <g>
        <rect x="0" y="0" width="377.464" height="377.464" style="fill:none;"/>
        <g transform="matrix(0.476329,0,0,0.788907,112.077,39.8401)">
            <path d="M12.153,9.075L309.704,188.732L12.153,368.389" style="fill:none;stroke:rgb(235,235,235);stroke-width:63.94px;"/>
        </g>
    </g>
    <g>
        <g transform="matrix(1,0,0,1,377.464,-5.68434e-14)">
            <rect x="0" y="0" width="377.464" height="377.464" style="fill:none;"/>
        </g>
        <g>
            <g transform="matrix(1,0,0,1,201.458,6.39488e-14)">
                <path d="M495.33,47L495.33,330.464" style="fill:none;stroke:rgb(235,235,235);stroke-width:41.67px;"/>
            </g>
            <g transform="matrix(0.476329,0,0,0.788907,489.541,39.8401)">
                <path d="M12.153,9.075L309.704,188.732L12.153,368.389" style="fill:none;stroke:rgb(235,235,235);stroke-width:63.94px;"/>
            </g>
        </g>
    </g>
    <g transform="matrix(1,0,0,1,754.928,0)">
        <g transform="matrix(1,0,0,1,0.977262,0)">
            <rect x="0" y="0" width="377.464" height="377.464" style="fill:none;"/>
        </g>
        <g transform="matrix(1,0,0,1,-754.928,27.6996)">
            <g transform="matrix(5.67306e-17,-0.926481,0.926481,5.67306e-17,768.804,1063.02)">
                <path d="M943.66,73.812C880.192,73.812 828.741,125.264 828.741,188.732C828.741,252.158 880.234,303.652 943.66,303.652C1007.13,303.652 1058.58,252.201 1058.58,188.732" style="fill:none;stroke:rgb(235,235,235);stroke-width:44.97px;"/>
            </g>
            <g transform="matrix(1,0,0,1,-7.95808e-13,8.39252)">
                <path d="M943.66,18.469L848.692,80.307L943.66,129.268" style="fill:none;stroke:rgb(235,235,235);stroke-width:41.67px;"/>
            </g>
        </g>
    </g>
    <g transform="matrix(1,0,0,1,-389.063,0)">
        <g transform="matrix(1,0,0,1,1522.43,-5.68434e-14)">
            <rect x="0" y="0" width="377.464" height="377.464" style="fill:none;"/>
        </g>
        <g transform="matrix(0.707107,-0.707107,0.707107,0.707107,642.557,989.454)">
            <path d="M1321.12,0L1321.12,377.464" style="fill:none;stroke:rgb(235,235,235);stroke-width:41.67px;"/>
            <g transform="matrix(6.12323e-17,-1,1,6.12323e-17,1132.39,1509.86)">
                <path d="M1321.12,0L1321.12,377.464" style="fill:none;stroke:rgb(235,235,235);stroke-width:41.67px;"/>
            </g>
        </g>
    </g>
    <g transform="matrix(1,0,0,1,1509.86,-5.68434e-14)">
        <g transform="matrix(1,0,0,1,1.95452,0)">
            <rect x="0" y="0" width="377.464" height="377.464" style="fill:none;"/>
        </g>
        <g transform="matrix(1,0,0,1,-1506.42,5.68434e-14)">
            <g transform="matrix(1,0,0,1,-2.98477,0)">
                <path d="M1606.85,161.743L1794.24,161.743" style="fill:none;stroke:rgb(235,235,235);stroke-width:41.67px;"/>
            </g>
            <path d="M1700.54,161.743L1700.54,327.908" style="fill:none;stroke:rgb(235,235,235);stroke-width:41.67px;"/>
            <g transform="matrix(1,0,0,1,-3.43361,0)">
                <ellipse cx="1700.54" cy="188.732" rx="95.493" ry="139.176" style="fill:none;stroke:rgb(235,235,235);stroke-width:41.67px;"/>
            </g>
            <g transform="matrix(0.899869,0,0,1,181.548,0)">
                <g transform="matrix(0.696072,0,0,1,538.93,0)">
                    <path d="M1773.22,98.488L1862.09,49.556" style="fill:none;stroke:rgb(235,235,235);stroke-width:49.94px;"/>
                </g>
                <path d="M1796.04,188.732L1874.13,188.732" style="fill:none;stroke:rgb(235,235,235);stroke-width:43.8px;"/>
                <g transform="matrix(0.696072,0,0,1,538.93,0)">
                    <path d="M1773.22,278.976L1862.09,327.908" style="fill:none;stroke:rgb(235,235,235);stroke-width:49.94px;"/>
                </g>
            </g>
            <g transform="matrix(-0.899869,0,0,1,3212.67,0)">
                <g transform="matrix(0.696072,0,0,1,538.93,0)">
                    <path d="M1773.22,98.488L1862.09,49.556" style="fill:none;stroke:rgb(235,235,235);stroke-width:49.94px;"/>
                </g>
                <path d="M1796.04,188.732L1874.13,188.732" style="fill:none;stroke:rgb(235,235,235);stroke-width:43.8px;"/>
                <g transform="matrix(0.696072,0,0,1,538.93,0)">
                    <path d="M1773.22,278.976L1862.09,327.908" style="fill:none;stroke:rgb(235,235,235);stroke-width:49.94px;"/>
                </g>
            </g>
        </g>
    </g>
</svg>
